<svg width="185" height="289" viewBox="0 0 185 289" fill="none" xmlns="http://www.w3.org/2000/svg">
<path d="M16 273H169" stroke="black" stroke-width="32" stroke-linecap="round"/>
<path d="M32.6863 129.686C26.4379 135.935 26.4379 146.065 32.6863 152.314C38.9347 158.562 49.0653 158.562 55.3137 152.314L32.6863 129.686ZM185 16C185 7.16344 177.837 -2.94974e-06 169 -2.94974e-06H25C16.1634 -2.94974e-06 9.00001 7.16344 9.00001 16C9.00001 24.8366 16.1634 32 25 32H153V160C153 168.837 160.163 176 169 176C177.837 176 185 168.837 185 160V16ZM55.3137 152.314L180.314 27.3137L157.686 4.68629L32.6863 129.686L55.3137 152.314Z" fill="black"/>
</svg>
