<svg width="624" height="236" viewBox="0 0 624 236" fill="none" xmlns="http://www.w3.org/2000/svg">
<path fill-rule="evenodd" clip-rule="evenodd" d="M619.314 106.51L517.49 4.68629C511.242 -1.5621 501.111 -1.5621 494.863 4.68629C488.615 10.9347 488.615 21.0653 494.863 27.3137L569.373 101.823H198.727C191.069 54.2006 149.782 17.8234 100 17.8234C44.7715 17.8234 0 62.5949 0 117.823C0 173.052 44.7715 217.823 100 217.823C149.782 217.823 191.069 181.446 198.727 133.823H569.373L494.863 208.333C488.615 214.581 488.615 224.712 494.863 230.96C501.111 237.209 511.242 237.209 517.49 230.96L619.314 129.137C625.562 122.889 625.562 112.758 619.314 106.51ZM168 117.823C168 155.379 137.555 185.823 100 185.823C62.4446 185.823 32 155.379 32 117.823C32 80.268 62.4446 49.8234 100 49.8234C137.555 49.8234 168 80.268 168 117.823Z" fill="black"/>
</svg>
