<svg width="770" height="400" viewBox="0 0 770 400" fill="none" xmlns="http://www.w3.org/2000/svg">
<circle cx="570" cy="200" r="200" fill="#FD793E"/>
<path fill-rule="evenodd" clip-rule="evenodd" d="M619.314 188.51L517.49 86.6863C511.242 80.4379 501.111 80.4379 494.863 86.6863C488.615 92.9347 488.615 103.065 494.863 109.314L569.373 183.823H198.727C191.069 136.201 149.782 99.8234 100 99.8234C44.7715 99.8234 0 144.595 0 199.823C0 255.052 44.7715 299.823 100 299.823C149.782 299.823 191.069 263.446 198.727 215.823H569.373L494.863 290.333C488.615 296.581 488.615 306.712 494.863 312.96C501.111 319.209 511.242 319.209 517.49 312.96L619.314 211.137C625.562 204.889 625.562 194.758 619.314 188.51ZM168 199.823C168 237.379 137.555 267.823 100 267.823C62.4446 267.823 32 237.379 32 199.823C32 162.268 62.4446 131.823 100 131.823C137.555 131.823 168 162.268 168 199.823Z" fill="black"/>
</svg>
