<svg width="694" height="201" viewBox="0 0 694 201" fill="none" xmlns="http://www.w3.org/2000/svg">
<path fill-rule="evenodd" clip-rule="evenodd" d="M168 100.823C168 138.379 137.555 168.823 100 168.823C62.4446 168.823 32 138.379 32 100.823C32 63.268 62.4446 32.8234 100 32.8234C137.555 32.8234 168 63.268 168 100.823ZM198.727 84.8234C191.069 37.2006 149.782 0.823364 100 0.823364C44.7715 0.823364 0 45.5949 0 100.823C0 156.052 44.7715 200.823 100 200.823C149.782 200.823 191.069 164.446 198.727 116.823H524.164C531.653 156.304 566.34 186.157 608 186.157C655.128 186.157 693.333 147.952 693.333 100.823C693.333 53.6951 655.128 15.49 608 15.49C566.34 15.49 531.653 45.3429 524.164 84.8234H198.727Z" fill="black"/>
</svg>
