<svg width="100" height="104" viewBox="0 0 100 104" fill="none" xmlns="http://www.w3.org/2000/svg">
<path fill-rule="evenodd" clip-rule="evenodd" d="M27.3459 4.87949C21.0901 -1.6265 10.9476 -1.6265 4.69181 4.87949C-1.56394 11.3855 -1.56394 21.9338 4.69182 28.4397L27.3459 52L4.69182 75.5603C-1.56394 82.0663 -1.56394 92.6146 4.69182 99.1206C10.9476 105.627 21.0902 105.627 27.3459 99.1206L50 75.5603L72.6541 99.1205C78.9098 105.626 89.0524 105.626 95.3081 99.1205C101.564 92.6145 101.564 82.0662 95.3081 75.5602L72.6541 52L95.3082 28.4398C101.564 21.9339 101.564 11.3856 95.3082 4.87959C89.0524 -1.62639 78.9098 -1.62639 72.6541 4.8796L50 28.4398L27.3459 4.87949Z" fill="black"/>
</svg>
